<mxfile host="app.diagrams.net" modified="2021-06-23T17:48:29.616Z" agent="5.0 (Macintosh; Intel Mac OS X 10_15_7) AppleWebKit/537.36 (KHTML, like Gecko) Chrome/90.0.4430.212 Safari/537.36" etag="CD_yVOoDWw8kqY_185Oo" version="14.6.3" type="github">
  <diagram id="wFE0QG_FPsp0jaGvCLVb" name="Page-1">
    <mxGraphModel dx="946" dy="614" grid="1" gridSize="10" guides="1" tooltips="1" connect="1" arrows="1" fold="1" page="1" pageScale="1" pageWidth="850" pageHeight="1100" math="0" shadow="0">
      <root>
        <mxCell id="0" />
        <mxCell id="1" parent="0" />
        <mxCell id="AEPbbA-0Zqe34Hob7d7h-1" value="" style="rounded=0;whiteSpace=wrap;html=1;sketch=1;" vertex="1" parent="1">
          <mxGeometry x="100" y="30" width="680" height="580" as="geometry" />
        </mxCell>
        <mxCell id="AEPbbA-0Zqe34Hob7d7h-2" value="&lt;font style=&quot;font-size: 24px&quot;&gt;Platform容器&lt;/font&gt;" style="text;html=1;resizable=0;autosize=1;align=center;verticalAlign=middle;points=[];fillColor=none;strokeColor=none;rounded=0;sketch=1;" vertex="1" parent="1">
          <mxGeometry x="350" y="50" width="150" height="20" as="geometry" />
        </mxCell>
        <mxCell id="AEPbbA-0Zqe34Hob7d7h-5" style="edgeStyle=orthogonalEdgeStyle;rounded=0;orthogonalLoop=1;jettySize=auto;html=1;entryX=0.5;entryY=0;entryDx=0;entryDy=0;" edge="1" parent="1" source="AEPbbA-0Zqe34Hob7d7h-3" target="AEPbbA-0Zqe34Hob7d7h-4">
          <mxGeometry relative="1" as="geometry" />
        </mxCell>
        <mxCell id="AEPbbA-0Zqe34Hob7d7h-3" value="&lt;font style=&quot;font-size: 17px&quot;&gt;Global Header&lt;/font&gt;" style="rounded=0;whiteSpace=wrap;html=1;sketch=1;" vertex="1" parent="1">
          <mxGeometry x="160" y="90" width="550" height="80" as="geometry" />
        </mxCell>
        <mxCell id="AEPbbA-0Zqe34Hob7d7h-8" style="edgeStyle=orthogonalEdgeStyle;rounded=0;orthogonalLoop=1;jettySize=auto;html=1;exitX=0.5;exitY=1;exitDx=0;exitDy=0;" edge="1" parent="1" source="AEPbbA-0Zqe34Hob7d7h-4" target="AEPbbA-0Zqe34Hob7d7h-6">
          <mxGeometry relative="1" as="geometry" />
        </mxCell>
        <mxCell id="AEPbbA-0Zqe34Hob7d7h-4" value="Share Infos&lt;br&gt;(用户、权限、登录状态等信息)" style="rounded=0;whiteSpace=wrap;html=1;sketch=1;dashed=1;" vertex="1" parent="1">
          <mxGeometry x="260" y="210" width="350" height="60" as="geometry" />
        </mxCell>
        <mxCell id="AEPbbA-0Zqe34Hob7d7h-6" value="" style="rounded=1;whiteSpace=wrap;html=1;sketch=1;" vertex="1" parent="1">
          <mxGeometry x="185" y="310" width="500" height="270" as="geometry" />
        </mxCell>
        <mxCell id="AEPbbA-0Zqe34Hob7d7h-7" value="&lt;font style=&quot;font-size: 18px&quot;&gt;MicroApp子应用&lt;/font&gt;" style="text;html=1;resizable=0;autosize=1;align=center;verticalAlign=middle;points=[];fillColor=none;strokeColor=none;rounded=0;sketch=1;" vertex="1" parent="1">
          <mxGeometry x="360" y="320" width="150" height="20" as="geometry" />
        </mxCell>
        <mxCell id="AEPbbA-0Zqe34Hob7d7h-9" value="侧边菜单栏" style="rounded=0;whiteSpace=wrap;html=1;sketch=1;" vertex="1" parent="1">
          <mxGeometry x="200" y="350" width="50" height="210" as="geometry" />
        </mxCell>
        <mxCell id="AEPbbA-0Zqe34Hob7d7h-15" value="子应用路由数据" style="edgeStyle=orthogonalEdgeStyle;rounded=0;orthogonalLoop=1;jettySize=auto;html=1;exitX=0;exitY=0.5;exitDx=0;exitDy=0;entryX=0.98;entryY=0.533;entryDx=0;entryDy=0;entryPerimeter=0;" edge="1" parent="1" source="AEPbbA-0Zqe34Hob7d7h-10" target="AEPbbA-0Zqe34Hob7d7h-9">
          <mxGeometry relative="1" as="geometry" />
        </mxCell>
        <mxCell id="AEPbbA-0Zqe34Hob7d7h-10" value="" style="rounded=0;whiteSpace=wrap;html=1;sketch=1;dashed=1;" vertex="1" parent="1">
          <mxGeometry x="350" y="355" width="320" height="205" as="geometry" />
        </mxCell>
        <mxCell id="AEPbbA-0Zqe34Hob7d7h-16" value="" style="group" vertex="1" connectable="0" parent="1">
          <mxGeometry x="370" y="380" width="280" height="150" as="geometry" />
        </mxCell>
        <mxCell id="AEPbbA-0Zqe34Hob7d7h-11" value="MicroApp1" style="rounded=1;whiteSpace=wrap;html=1;sketch=1;" vertex="1" parent="AEPbbA-0Zqe34Hob7d7h-16">
          <mxGeometry width="120" height="60" as="geometry" />
        </mxCell>
        <mxCell id="AEPbbA-0Zqe34Hob7d7h-12" value="MicroApp4" style="rounded=1;whiteSpace=wrap;html=1;sketch=1;" vertex="1" parent="AEPbbA-0Zqe34Hob7d7h-16">
          <mxGeometry x="160" y="90" width="120" height="60" as="geometry" />
        </mxCell>
        <mxCell id="AEPbbA-0Zqe34Hob7d7h-13" value="MicroApp3" style="rounded=1;whiteSpace=wrap;html=1;sketch=1;" vertex="1" parent="AEPbbA-0Zqe34Hob7d7h-16">
          <mxGeometry y="90" width="120" height="60" as="geometry" />
        </mxCell>
        <mxCell id="AEPbbA-0Zqe34Hob7d7h-14" value="MicroApp2" style="rounded=1;whiteSpace=wrap;html=1;sketch=1;" vertex="1" parent="AEPbbA-0Zqe34Hob7d7h-16">
          <mxGeometry x="160" width="120" height="60" as="geometry" />
        </mxCell>
      </root>
    </mxGraphModel>
  </diagram>
</mxfile>
